<svg width="364" height="900" viewBox="0 0 364 900" fill="none" xmlns="http://www.w3.org/2000/svg">
<path d="M27.4652 179.806C27.3141 178.598 27.1932 178.477 25.9542 178.296C27.163 178.145 27.2839 178.024 27.4652 176.786C27.6163 177.994 27.7372 178.114 28.9761 178.296C27.7674 178.447 27.6465 178.598 27.4652 179.806Z" fill="white" fill-opacity="0.1"/>
<path d="M40.7817 13.3301C40.6306 12.122 40.5098 12.0012 39.2708 11.8199C40.4795 11.6688 40.6004 11.548 40.7817 10.3097C40.9328 11.5179 41.0537 11.6386 42.2927 11.8199C41.0839 11.9708 40.963 12.122 40.7817 13.3301Z" fill="white" fill-opacity="0.1"/>
<path d="M126.229 118.383C126.078 117.174 125.957 117.054 124.718 116.872C125.927 116.721 126.048 116.6 126.229 115.362C126.38 116.57 126.501 116.691 127.74 116.872C126.531 117.023 126.411 117.174 126.229 118.383Z" fill="white" fill-opacity="0.1"/>
<path d="M217.951 27.7029C217.951 28.32 217.45 28.8205 216.832 28.8205C216.215 28.8205 215.714 28.32 215.714 27.7029C215.714 27.0856 216.215 26.5854 216.832 26.5854C217.45 26.5854 217.951 27.0856 217.951 27.7029Z" fill="white" fill-opacity="0.1"/>
<path d="M63.8953 78.2197C63.8953 78.8368 63.3946 79.3373 62.777 79.3373C62.1597 79.3373 61.6589 78.8368 61.6589 78.2197C61.6589 77.6024 62.1597 77.1022 62.777 77.1022C63.3946 77.1022 63.8953 77.6024 63.8953 78.2197Z" fill="white" fill-opacity="0.1"/>
<path d="M69.2495 181.583C69.2495 182.2 68.7491 182.7 68.1315 182.7C67.5141 182.7 67.0134 182.2 67.0134 181.583C67.0134 180.965 67.5141 180.465 68.1315 180.465C68.7491 180.465 69.2495 180.965 69.2495 181.583Z" fill="white" fill-opacity="0.1"/>
<path d="M84.7235 121.287C84.7235 121.904 84.2231 122.405 83.6055 122.405C82.9879 122.405 82.4874 121.904 82.4874 121.287C82.4874 120.67 82.9879 120.17 83.6055 120.17C84.2231 120.17 84.7235 120.67 84.7235 121.287Z" fill="white" fill-opacity="0.1"/>
<path d="M285.332 11.1235C284.553 11.9019 283.29 11.9019 282.511 11.1235C281.732 10.3449 281.732 9.0827 282.511 8.30435C283.29 7.52573 284.553 7.52573 285.332 8.30435C286.111 9.0827 286.111 10.3449 285.332 11.1235Z" fill="white" fill-opacity="0.15"/>
<path d="M166.904 78.3797C166.904 78.9968 166.403 79.4972 165.786 79.4972C165.168 79.4972 164.668 78.9968 164.668 78.3797C164.668 77.7624 165.168 77.2622 165.786 77.2622C166.403 77.2622 166.904 77.7624 166.904 78.3797Z" fill="white" fill-opacity="0.15"/>
<path d="M104.405 4.08257C104.254 2.87439 104.133 2.75363 102.894 2.57235C104.103 2.4212 104.224 2.30043 104.405 1.06213C104.556 2.27031 104.677 2.39107 105.916 2.57235C104.707 2.72324 104.586 2.87439 104.405 4.08257Z" fill="white" fill-opacity="0.1"/>
<path d="M133.196 82.1308C133.044 80.9227 132.924 80.8019 131.685 80.6206C132.893 80.4695 133.014 80.3487 133.196 79.1104C133.347 80.3186 133.468 80.4393 134.706 80.6206C133.498 80.7715 133.377 80.9227 133.196 82.1308Z" fill="white" fill-opacity="0.1"/>
<path d="M181.512 448.38C181.663 449.588 181.784 449.709 183.023 449.891C181.814 450.042 181.694 450.162 181.512 451.401C181.361 450.193 181.24 450.072 180.001 449.891C181.21 449.74 181.331 449.588 181.512 448.38Z" fill="white" fill-opacity="0.1"/>
<path d="M265.11 204.595C265.261 205.803 265.382 205.924 266.621 206.105C265.412 206.256 265.291 206.377 265.11 207.615C264.959 206.407 264.838 206.286 263.599 206.105C264.808 205.954 264.929 205.803 265.11 204.595Z" fill="white" fill-opacity="0.1"/>
<path d="M251.794 371.071C251.945 372.279 252.066 372.4 253.305 372.581C252.096 372.732 251.975 372.853 251.794 374.091C251.643 372.883 251.522 372.762 250.283 372.581C251.491 372.43 251.612 372.279 251.794 371.071Z" fill="white" fill-opacity="0.1"/>
<path d="M166.346 266.018C166.497 267.226 166.618 267.347 167.857 267.528C166.648 267.68 166.527 267.8 166.346 269.039C166.195 267.83 166.074 267.71 164.835 267.528C166.044 267.378 166.165 267.226 166.346 266.018Z" fill="white" fill-opacity="0.1"/>
<path d="M290.339 450.283C290.339 449.666 290.84 449.166 291.457 449.166C292.075 449.166 292.575 449.666 292.575 450.283C292.575 450.9 292.075 451.401 291.457 451.401C290.84 451.401 290.339 450.9 290.339 450.283Z" fill="white" fill-opacity="0.1"/>
<path d="M74.6246 356.698C74.6246 356.081 75.1253 355.58 75.7429 355.58C76.3602 355.58 76.861 356.081 76.861 356.698C76.861 357.315 76.3602 357.815 75.7429 357.815C75.1253 357.815 74.6246 357.315 74.6246 356.698Z" fill="white" fill-opacity="0.1"/>
<path d="M228.68 306.181C228.68 305.564 229.181 305.064 229.798 305.064C230.416 305.064 230.916 305.564 230.916 306.181C230.916 306.798 230.416 307.299 229.798 307.299C229.181 307.299 228.68 306.798 228.68 306.181Z" fill="white" fill-opacity="0.1"/>
<path d="M223.326 202.818C223.326 202.201 223.826 201.7 224.444 201.7C225.061 201.7 225.562 202.201 225.562 202.818C225.562 203.435 225.061 203.936 224.444 203.936C223.826 203.936 223.326 203.435 223.326 202.818Z" fill="white" fill-opacity="0.1"/>
<path d="M207.852 263.114C207.852 262.497 208.352 261.996 208.97 261.996C209.587 261.996 210.088 262.497 210.088 263.114C210.088 263.731 209.587 264.231 208.97 264.231C208.352 264.231 207.852 263.731 207.852 263.114Z" fill="white" fill-opacity="0.1"/>
<path d="M1.18772 438.336C2.19488 437.891 3.37293 438.346 3.81885 439.352C4.26478 440.359 3.8095 441.536 2.80234 441.982C1.79518 442.428 0.617133 441.973 0.171209 440.966C-0.274715 439.959 0.180559 438.782 1.18772 438.336Z" fill="white" fill-opacity="0.15"/>
<path d="M155.36 421.665C155.36 420.564 156.253 419.671 157.355 419.671C158.456 419.671 159.349 420.564 159.349 421.665C159.349 422.766 158.456 423.658 157.355 423.658C156.253 423.658 155.36 422.766 155.36 421.665Z" fill="white" fill-opacity="0.15"/>
<path d="M7.2436 373.277C8.02247 372.499 9.28526 372.499 10.0642 373.277C10.843 374.056 10.843 375.318 10.0642 376.096C9.28529 376.875 8.02247 376.875 7.24357 376.096C6.4647 375.318 6.4647 374.056 7.2436 373.277Z" fill="white" fill-opacity="0.15"/>
<path d="M32.4559 422.541C32.4559 421.923 32.9564 421.423 33.574 421.423C34.1916 421.423 34.692 421.923 34.692 422.541C34.692 423.158 34.1916 423.658 33.574 423.658C32.9564 423.658 32.4559 423.158 32.4559 422.541Z" fill="white" fill-opacity="0.15"/>
<path d="M125.671 306.021C125.671 305.404 126.172 304.904 126.789 304.904C127.407 304.904 127.907 305.404 127.907 306.021C127.907 306.638 127.407 307.139 126.789 307.139C126.172 307.139 125.671 306.638 125.671 306.021Z" fill="white" fill-opacity="0.15"/>
<path d="M188.17 380.318C188.321 381.526 188.442 381.647 189.681 381.828C188.473 381.98 188.352 382.1 188.17 383.339C188.019 382.13 187.898 382.01 186.659 381.828C187.868 381.678 187.989 381.526 188.17 380.318Z" fill="white" fill-opacity="0.1"/>
<path d="M82.8098 428.407C82.9609 429.615 83.0818 429.736 84.3208 429.917C83.112 430.068 82.9912 430.189 82.8098 431.427C82.6588 430.219 82.5379 430.098 81.2989 429.917C82.5077 429.766 82.6285 429.615 82.8098 428.407Z" fill="white" fill-opacity="0.1"/>
<path d="M159.38 302.27C159.531 303.478 159.652 303.599 160.891 303.78C159.682 303.931 159.561 304.052 159.38 305.29C159.229 304.082 159.108 303.961 157.869 303.78C159.078 303.629 159.198 303.478 159.38 302.27Z" fill="white" fill-opacity="0.1"/>
<path d="M227.072 417.31C227.223 418.518 227.344 418.639 228.583 418.82C227.374 418.971 227.253 419.092 227.072 420.33C226.921 419.122 226.8 419.001 225.561 418.82C226.77 418.669 226.891 418.518 227.072 417.31Z" fill="white" fill-opacity="0.1"/>
<path d="M278.659 529.603C278.81 528.394 278.931 528.274 280.17 528.092C278.961 527.941 278.841 527.821 278.659 526.582C278.508 527.79 278.387 527.911 277.148 528.092C278.357 528.243 278.478 528.394 278.659 529.603Z" fill="white" fill-opacity="0.1"/>
<path d="M362.303 671.763C362.454 670.554 362.575 670.434 363.814 670.252C362.605 670.101 362.484 669.98 362.303 668.742C362.152 669.95 362.031 670.071 360.792 670.252C362.001 670.403 362.122 670.554 362.303 671.763Z" fill="white" fill-opacity="0.1"/>
<path d="M266.063 663.425C266.214 662.217 266.335 662.096 267.574 661.915C266.366 661.764 266.245 661.643 266.063 660.405C265.912 661.613 265.791 661.734 264.552 661.915C265.761 662.066 265.882 662.217 266.063 663.425Z" fill="white" fill-opacity="0.1"/>
<path d="M101.232 571.54C101.383 570.332 101.504 570.211 102.743 570.03C101.534 569.879 101.413 569.758 101.232 568.52C101.081 569.728 100.96 569.849 99.7208 570.03C100.93 570.181 101.05 570.332 101.232 571.54Z" fill="white" fill-opacity="0.1"/>
<path d="M189.944 475.597C190.095 474.388 190.216 474.268 191.455 474.086C190.247 473.935 190.126 473.814 189.944 472.576C189.793 473.784 189.672 473.905 188.433 474.086C189.642 474.237 189.763 474.388 189.944 475.597Z" fill="white" fill-opacity="0.1"/>
<path d="M209.153 521.603C209.153 522.221 209.654 522.721 210.271 522.721C210.889 522.721 211.389 522.221 211.389 521.603C211.389 520.986 210.889 520.486 210.271 520.486C209.654 520.486 209.153 520.986 209.153 521.603Z" fill="white" fill-opacity="0.1"/>
<path d="M43.0616 629.468C43.0616 630.085 43.5621 630.586 44.1797 630.586C44.7973 630.586 45.2977 630.085 45.2977 629.468C45.2977 628.851 44.7973 628.351 44.1797 628.351C43.5621 628.351 43.0616 628.851 43.0616 629.468Z" fill="white" fill-opacity="0.1"/>
<path d="M299.774 554.008C299.774 554.625 300.275 555.126 300.892 555.126C301.51 555.126 302.01 554.625 302.01 554.008C302.01 553.391 301.51 552.891 300.892 552.891C300.275 552.891 299.774 553.391 299.774 554.008Z" fill="white" fill-opacity="0.1"/>
<path d="M88.5952 471.518C88.5952 472.135 89.0959 472.636 89.7135 472.636C90.3308 472.636 90.8315 472.135 90.8315 471.518C90.8315 470.901 90.3308 470.401 89.7135 470.401C89.0959 470.401 88.5952 470.901 88.5952 471.518Z" fill="white" fill-opacity="0.1"/>
<path d="M326.407 597.287C326.407 597.904 326.908 598.404 327.526 598.404C328.143 598.404 328.644 597.904 328.644 597.287C328.644 596.669 328.143 596.169 327.526 596.169C326.908 596.169 326.407 596.669 326.407 597.287Z" fill="white" fill-opacity="0.1"/>
<path d="M291.618 686.534C291.618 687.151 292.119 687.652 292.736 687.652C293.354 687.652 293.854 687.151 293.854 686.534C293.854 685.917 293.354 685.417 292.736 685.417C292.119 685.417 291.618 685.917 291.618 686.534Z" fill="white" fill-opacity="0.1"/>
<path d="M271.6 578.052C271.6 578.669 272.1 579.17 272.718 579.17C273.335 579.17 273.836 578.669 273.836 578.052C273.836 577.435 273.335 576.935 272.718 576.935C272.1 576.935 271.6 577.435 271.6 578.052Z" fill="white" fill-opacity="0.1"/>
<path d="M287.275 621.537C288.283 621.983 289.461 621.528 289.907 620.521C290.352 619.514 289.897 618.337 288.89 617.891C287.883 617.446 286.705 617.9 286.259 618.907C285.813 619.914 286.268 621.091 287.275 621.537Z" fill="white" fill-opacity="0.15"/>
<path d="M140.571 615.991C140.571 617.092 141.464 617.985 142.566 617.985C143.667 617.985 144.56 617.092 144.56 615.991C144.56 614.89 143.667 613.998 142.566 613.998C141.464 613.998 140.571 614.89 140.571 615.991Z" fill="white" fill-opacity="0.15"/>
<path d="M206.711 583.025C207.49 583.803 208.753 583.803 209.532 583.025C210.311 582.246 210.311 580.984 209.532 580.205C208.753 579.427 207.49 579.427 206.711 580.205C205.932 580.984 205.932 582.246 206.711 583.025Z" fill="white" fill-opacity="0.15"/>
<path d="M278.628 480.398C278.628 481.015 279.128 481.515 279.746 481.515C280.364 481.515 280.864 481.015 280.864 480.398C280.864 479.78 280.364 479.28 279.746 479.28C279.128 479.28 278.628 479.78 278.628 480.398Z" fill="white" fill-opacity="0.15"/>
<path d="M156.252 511.469C156.252 512.086 156.752 512.586 157.37 512.586C157.987 512.586 158.488 512.086 158.488 511.469C158.488 510.851 157.987 510.351 157.37 510.351C156.752 510.351 156.252 510.851 156.252 511.469Z" fill="white" fill-opacity="0.15"/>
<path d="M144.674 685.461C144.825 684.253 144.946 684.132 146.185 683.951C144.976 683.8 144.856 683.679 144.674 682.441C144.523 683.649 144.402 683.77 143.163 683.951C144.372 684.102 144.493 684.253 144.674 685.461Z" fill="white" fill-opacity="0.1"/>
<path d="M57.1492 542.549C57.3003 541.341 57.4212 541.22 58.6602 541.039C57.4514 540.887 57.3305 540.767 57.1492 539.528C56.9981 540.736 56.8772 540.857 55.6382 541.039C56.847 541.189 56.9679 541.341 57.1492 542.549Z" fill="white" fill-opacity="0.1"/>
<path d="M1.51094 595.169C1.66204 593.961 1.78291 593.84 3.02191 593.658C1.81314 593.507 1.69227 593.387 1.51094 592.148C1.35986 593.356 1.23897 593.477 -8.17225e-06 593.658C1.20876 593.809 1.32963 593.961 1.51094 595.169Z" fill="white" fill-opacity="0.1"/>
<path d="M360.301 764.609C360.452 765.817 360.573 765.938 361.812 766.119C360.603 766.27 360.482 766.391 360.301 767.63C360.149 766.421 360.029 766.301 358.79 766.119C359.998 765.968 360.119 765.817 360.301 764.609Z" fill="white" fill-opacity="0.1"/>
<path d="M264.061 772.946C264.212 774.154 264.333 774.275 265.572 774.457C264.363 774.608 264.242 774.728 264.061 775.967C263.91 774.759 263.789 774.638 262.55 774.457C263.759 774.306 263.88 774.154 264.061 772.946Z" fill="white" fill-opacity="0.1"/>
<path d="M64.7642 706.652C64.9153 707.86 65.0361 707.981 66.2751 708.162C65.0664 708.313 64.9455 708.434 64.7642 709.672C64.6131 708.464 64.4922 708.344 63.2532 708.162C64.462 708.011 64.5829 707.86 64.7642 706.652Z" fill="white" fill-opacity="0.1"/>
<path d="M41.0592 806.903C41.0592 806.286 41.5596 805.786 42.1772 805.786C42.7948 805.786 43.2953 806.286 43.2953 806.903C43.2953 807.521 42.7948 808.021 42.1772 808.021C41.5596 808.021 41.0592 807.521 41.0592 806.903Z" fill="white" fill-opacity="0.1"/>
<path d="M297.772 882.364C297.772 881.747 298.272 881.246 298.89 881.246C299.507 881.246 300.008 881.747 300.008 882.364C300.008 882.981 299.507 883.481 298.89 883.481C298.272 883.481 297.772 882.981 297.772 882.364Z" fill="white" fill-opacity="0.1"/>
<path d="M324.405 839.085C324.405 838.468 324.905 837.967 325.523 837.967C326.14 837.967 326.641 838.468 326.641 839.085C326.641 839.702 326.14 840.203 325.523 840.203C324.905 840.203 324.405 839.702 324.405 839.085Z" fill="white" fill-opacity="0.1"/>
<path d="M289.616 749.838C289.616 749.22 290.116 748.72 290.734 748.72C291.351 748.72 291.852 749.22 291.852 749.838C291.852 750.455 291.351 750.955 290.734 750.955C290.116 750.955 289.616 750.455 289.616 749.838Z" fill="white" fill-opacity="0.1"/>
<path d="M269.597 858.32C269.597 857.703 270.098 857.202 270.715 857.202C271.333 857.202 271.833 857.703 271.833 858.32C271.833 858.937 271.333 859.437 270.715 859.437C270.098 859.437 269.597 858.937 269.597 858.32Z" fill="white" fill-opacity="0.1"/>
<path d="M285.273 814.835C286.28 814.389 287.458 814.844 287.904 815.851C288.35 816.857 287.895 818.035 286.888 818.481C285.88 818.926 284.702 818.472 284.256 817.465C283.811 816.458 284.266 815.281 285.273 814.835Z" fill="white" fill-opacity="0.15"/>
<path d="M138.569 820.381C138.569 819.28 139.462 818.387 140.563 818.387C141.665 818.387 142.558 819.28 142.558 820.381C142.558 821.482 141.665 822.374 140.563 822.374C139.462 822.374 138.569 821.482 138.569 820.381Z" fill="white" fill-opacity="0.15"/>
<path d="M204.709 853.347C205.488 852.569 206.75 852.569 207.529 853.347C208.308 854.126 208.308 855.388 207.529 856.166C206.75 856.945 205.488 856.945 204.709 856.166C203.93 855.388 203.93 854.126 204.709 853.347Z" fill="white" fill-opacity="0.15"/>
<path d="M142.672 750.91C142.823 752.119 142.944 752.239 144.183 752.421C142.974 752.572 142.853 752.693 142.672 753.931C142.521 752.723 142.4 752.602 141.161 752.421C142.37 752.27 142.49 752.119 142.672 750.91Z" fill="white" fill-opacity="0.1"/>
<path d="M55.1467 893.823C55.2978 895.031 55.4187 895.152 56.6577 895.333C55.4489 895.484 55.3281 895.605 55.1467 896.843C54.9957 895.635 54.8748 895.515 53.6358 895.333C54.8446 895.182 54.9654 895.031 55.1467 893.823Z" fill="white" fill-opacity="0.1"/>
<path d="M1.51088 740.683C1.66198 741.891 1.78285 742.012 3.02185 742.193C1.81308 742.345 1.69221 742.465 1.51088 743.704C1.3598 742.495 1.23891 742.375 -6.92074e-05 742.193C1.2087 742.043 1.32957 741.891 1.51088 740.683Z" fill="white" fill-opacity="0.1"/>
</svg>
